<?xml version="1.0" standalone="no"?>
<svg viewBox="0 0 200 200" xmlns="http://www.w3.org/2000/svg">
  <path fill="#FDBEB5" d="M33.1,-50.3C47.2,-49.2,66,-49.1,75.2,-40.9C84.4,-32.7,84,-16.3,80.7,-1.9C77.4,12.5,71.3,25.1,61.5,32.3C51.7,39.4,38.3,41.2,27.4,43.1C16.6,45,8.3,46.9,-2.2,50.7C-12.6,54.5,-25.3,60.1,-36.6,58.4C-47.9,56.8,-57.9,48,-65.8,37.1C-73.8,26.1,-79.8,13.1,-80.3,-0.3C-80.9,-13.7,-76,-27.4,-69.2,-40.4C-62.4,-53.3,-53.7,-65.7,-41.9,-68.1C-30,-70.6,-15,-63.2,-2.8,-58.4C9.5,-53.6,19,-51.4,33.1,-50.3Z" transform="translate(100 100)" />
</svg>
